<svg width="24" height="20" viewBox="0 0 24 20" fill="none" xmlns="http://www.w3.org/2000/svg">
<path d="M15 6.98701H18.38C18.76 6.98701 19.11 7.19701 19.27 7.53701L20.99 10.987L22.44 11.707C22.78 11.877 22.99 12.227 22.99 12.597V15.977C22.99 16.527 22.54 16.977 21.99 16.977H20.99" stroke="#333333" stroke-linecap="round" stroke-linejoin="round"/>
<path d="M17 16.987H15" stroke="#333333" stroke-linecap="round" stroke-linejoin="round"/>
<path d="M19 18.987C20.1046 18.987 21 18.0916 21 16.987C21 15.8824 20.1046 14.987 19 14.987C17.8954 14.987 17 15.8824 17 16.987C17 18.0916 17.8954 18.987 19 18.987Z" stroke="#333333" stroke-linecap="round" stroke-linejoin="round"/>
<path d="M6 18.987C7.10457 18.987 8 18.0916 8 16.987C8 15.8824 7.10457 14.987 6 14.987C4.89543 14.987 4 15.8824 4 16.987C4 18.0916 4.89543 18.987 6 18.987Z" stroke="#333333" stroke-linecap="round" stroke-linejoin="round"/>
<path d="M21 10.987H18" stroke="#333333" stroke-linecap="round" stroke-linejoin="round"/>
<path d="M4 16.987H3C1.9 16.987 1 16.087 1 14.987V2.98701C1 1.88701 1.9 0.987015 3 0.987015H13C14.1 0.987015 15 1.88701 15 2.98701V16.987H8" stroke="#333333" stroke-linecap="round" stroke-linejoin="round"/>
</svg>
