<svg width="24" height="17" viewBox="0 0 24 17" fill="none" xmlns="http://www.w3.org/2000/svg">
<path d="M4.48999 13.506H3.48999C2.38999 13.506 1.48999 12.606 1.48999 11.506V2.50601C1.48999 1.40601 2.38999 0.506012 3.48999 0.506012H15.02C16.54 0.506012 17.92 1.36601 18.6 2.71601L20.49 6.50601L22.15 7.61601C22.98 8.17601 23.49 9.10601 23.49 10.116V12.506C23.49 13.056 23.04 13.506 22.49 13.506H21.49" stroke="#333333" stroke-linecap="round" stroke-linejoin="round"/>
<path d="M17.49 13.506H8.48999" stroke="#333333" stroke-linecap="round" stroke-linejoin="round"/>
<path d="M19.49 15.506C20.5946 15.506 21.49 14.6106 21.49 13.506C21.49 12.4014 20.5946 11.506 19.49 11.506C18.3854 11.506 17.49 12.4014 17.49 13.506C17.49 14.6106 18.3854 15.506 19.49 15.506Z" stroke="#333333" stroke-linecap="round" stroke-linejoin="round"/>
<path d="M6.48999 15.506C7.59456 15.506 8.48999 14.6106 8.48999 13.506C8.48999 12.4014 7.59456 11.506 6.48999 11.506C5.38542 11.506 4.48999 12.4014 4.48999 13.506C4.48999 14.6106 5.38542 15.506 6.48999 15.506Z" stroke="#333333" stroke-linecap="round" stroke-linejoin="round"/>
<path d="M20.49 6.50601H16.49C15.94 6.50601 15.49 6.05601 15.49 5.50601V2.50601" stroke="#333333" stroke-linecap="round" stroke-linejoin="round"/>
<path d="M4.48999 6.50601H12.49" stroke="#333333" stroke-linecap="round" stroke-linejoin="round"/>
</svg>
