<svg version="1.2" xmlns="http://www.w3.org/2000/svg" viewBox="0 0 690 184" width="690" height="184">
	<title>logo</title>
	<style>
		.s0 { fill: #0085ba } 
		.s1 { fill: #ffb700 } 
	</style>
	<g id="Background">
		<path id="Path 0" fill-rule="evenodd" class="s0" d="m48.1 7h32.8c25.4 0 32.8 0.3 33 1.3 0.2 0.6 0.5 7 0.8 14.2 0.4 11.2 0.3 13.2-1.2 14.8-1.4 1.4-3.5 1.7-25.5 1.7v35h11.5c8.9 0 11.8 0.3 13 1.5 1.2 1.2 1.5 4.2 1.5 14 0 10.1-0.3 12.8-1.6 14-1.2 1.2-4.2 1.5-24.4 1.5l-0.4 34.3c-0.2 18.8-0.5 34.8-0.7 35.5-0.3 0.9-5.3 1.2-40.4 1.2l0.8-23.7c0.4-13.1 0.7-51.1 0.7-84.5zm105.1 0c14.2 0 25.9 0.3 25.8 0.7 0 0.4 2.5 1.1 5.5 1.5 3.1 0.4 8.6 2 12.3 3.5 5 2.1 8.3 4.3 13 9 4.8 4.8 6.6 7.5 7.9 11.5 1 3.2 1.8 10.4 2.1 18.8 0.5 11.6 0.3 14.4-1.5 20.5-1.8 6-2.9 7.7-7.7 12.2-3 2.9-6.2 5.3-7 5.3-0.9 0-1.5 0.4-1.5 1 0 0.5 1 1.2 2.2 1.4 1.2 0.3 4.6 2.9 7.4 5.8 4 4.2 5.3 6.3 6.2 10.5 0.7 3.3 1.2 15.8 1.2 33 0 15.3-0.4 29.2-1.5 34.3h-19c-14.4 0-19.1-0.4-19.4-1.3-0.2-0.7-0.6-15.4-0.8-32.7-0.3-22.7-0.8-31.9-1.6-32.8-0.7-0.8-3.4-1.3-11.2-1.2v32.5c0 17.8-0.3 33.1-0.5 34-0.5 1.2-3.5 1.5-19 1.5-15.6 0-18.6-0.3-19-1.5-0.3-0.9-0.5-38.2-0.5-83 0-44.9 0.1-82.2 0.4-83 0.3-1.3 4.1-1.5 26.2-1.5zm12.9 70c3.8 0 6.5-0.7 8.5-1.5 2.7-1.2 3.6-2.3 4-4.8 0.4-1.8 0.5-9 0.3-16-0.2-8.8-0.7-13.1-1.7-14-0.7-0.7-3.4-1.4-6.1-1.6l-4.8-0.4zm67.3-70h33.2c25.7 0 33.3 0.3 33.5 1.2 0.1 0.7 0.5 7.1 0.7 14.3 0.5 11.2 0.3 13.2-1.1 14.7-1.5 1.5-3.6 1.8-27.6 1.8v35h12c9.4 0 12.4 0.3 13.5 1.5 1.2 1.2 1.5 4.2 1.5 14 0 10.1-0.3 12.8-1.5 14-1.2 1.2-4.3 1.5-25.5 1.5v39h13.5c11.6 0 13.8 0.2 15.1 1.7 1.4 1.5 1.6 4 0.9 30.3h-69.5v-81.3c0-44.6 0.3-82.7 0.6-84.5zm115.3 0c29.7 0 38.2 0.3 38.4 1.3 0.2 0.7 0.5 7.3 0.7 14.7 0.3 10 0.1 13.9-0.8 14.8-0.9 0.9-4 1.3-17.8 1.2l-0.3 67.3c-0.2 37-0.6 67.8-0.8 68.5-0.3 0.9-5.1 1.2-19.4 1.2-17.4 0-19-0.1-19.1-1.7 0-1-0.1-31.8-0.4-135.3h-8.5c-6.8 0-8.8-0.3-10.1-1.7-1.3-1.5-1.5-3.8-1.1-14.8 0.3-7.1 0.6-13.5 0.8-14.2 0.2-1 8.7-1.3 38.4-1.3zm84.2 0c28.7 0 33.4 0.3 33.8 1.5 0.3 0.9 0.5 7.8 0.5 15.5 0 11.6-0.3 14.1-1.5 14.5-0.8 0.3-7.1 0.5-26.5 0.5v35h11.5c6.3 0 12.2 0.3 13 0.5 1.3 0.5 1.5 3 1.5 15 0 12-0.2 14.6-1.5 15-0.8 0.3-6.7 0.5-24.5 0.5v39h13.5c11.6 0 13.7 0.3 15.1 1.8 1.3 1.5 1.5 3.8 1.1 14.7-0.3 7.2-0.6 13.6-0.8 14.3-0.3 1-8 1.2-34.4 1.2-29.3 0-34.1-0.2-34.5-1.5-0.3-0.8-0.5-38.1-0.5-83 0-44.8 0.2-82.1 0.4-83 0.4-1.2 5-1.5 33.8-1.5z"/>
		<path id="Path 1" class="s1" d="m602.4 8c0.3 0.6 0.1 1-0.4 1-0.7 0-1 28.2-1 82.5 0 54.3 0.3 82.5 1 82.5 0.5 0 0.8 0.4 0.5 1-0.3 0.7 11.5 1 34.5 1h35c0-30.8 0-31-2.2-31.5-1.3-0.3-8-0.5-15-0.5h-12.8v-39c20.2 0 23.2-0.3 24.4-1.5 1.3-1.2 1.6-3.9 1.6-14 0-9.8-0.3-12.8-1.5-14-1.2-1.2-4.1-1.5-13-1.5h-11.5v-35c19.4 0 25.7-0.2 26.5-0.5 1.2-0.4 1.5-3 1.5-15 0-9-0.4-14.5-1-14.5-0.5 0-0.8-0.4-0.5-1 0.3-0.7-11-1-33.1-1-22.1 0-33.4 0.3-33 1zm-122.9 2.6c-1.5 1.4-1.6 8.6-1.6 82 0.1 52.5 0.4 80.6 1.1 80.9 0.6 0.3 0.8 0.9 0.5 1.5-0.3 0.6 5.2 1 15.5 1 8.8 0 15.9-0.3 15.8-0.8 0-0.4 0.2-1.4 0.6-2.2 0.3-0.8 0.5-19.2 0.4-40.8-0.2-21.5 0-39.2 0.5-39.2 0.4 0 1.1 1.7 1.7 3.7 0.5 2.1 2.1 8.1 3.4 13.3 1.4 5.2 3.2 12.2 4.1 15.5 0.9 3.3 2.4 9.6 3.4 14 1.1 4.4 2.5 9.3 3.1 11 0.6 1.7 1.7 3.3 2.3 3.7 0.7 0.4 3.2 0.8 5.7 0.8 2.5 0 5.3-0.5 6.3-1.2 1.1-0.8 2.6-4.4 3.7-8.8 1-4.1 3-11.6 4.5-16.5 1.4-5 3.4-12.4 4.5-16.5 1-4.1 2.7-10.5 3.7-14.2 1-3.6 2.2-7 2.6-7.5 0.5-0.4 0.7 17.9 0.6 40.7-0.2 22.8-0.1 42.3 0.1 43.2 0.5 1.6 2.1 1.8 17 1.8 14.9 0 16.5-0.2 17-1.8 0.2-0.9 0.5-37.9 0.5-82.1 0-63-0.3-80.7-1.2-81.8-1-1-5.8-1.3-20-1.3-10.4 0-19.4 0.4-20 0.8-0.7 0.4-2.2 4.1-3.4 8.2-1.2 4.1-2.9 10.9-3.9 15-0.9 4.1-3 12-4.5 17.5-1.5 5.5-3.1 11.8-3.6 14-0.5 2.2-1.1 5-1.4 6.2-0.3 1.5-1.2 2.3-2.5 2.3-1.1 0-2.2-0.8-2.4-1.8-0.3-0.9-1-4.4-1.6-7.7-0.6-3.3-1.8-8.3-2.6-11-0.7-2.8-2.7-10.9-4.4-18-1.7-7.2-3.7-15.4-4.5-18.3-0.9-3.2-2.3-5.6-3.5-6.2-1.1-0.6-9.6-1-18.9-1-14.1 0-17.2 0.3-18.6 1.6z"/>
	</g>
</svg>