<svg version="1.2" xmlns="http://www.w3.org/2000/svg" viewBox="0 0 25 25" width="25" height="25">
	<title>facebook-svg</title>
	<style>
		.s0 { fill: #1778f2 } 
		.s1 { fill: #fdfdfd } 
	</style>
	<g id="facebook square">
		<path id="Rectangle 3167" class="s0" d="m0 5c0-2.8 2.2-5 5-5h15c2.8 0 5 2.2 5 5v15c0 2.8-2.2 5-5 5h-15c-2.8 0-5-2.2-5-5z"/>
		<path id="Layer" class="s1" d="m10.8 19.6v-6.7h-2.2v-2.6h2.2v-2c0-2.2 1.4-3.4 3.4-3.4q0.2 0 0.5 0 0.2 0 0.5 0 0.2 0 0.5 0 0.2 0.1 0.5 0.1v2.3h-1.4c-1.1 0-1.3 0.5-1.3 1.3v1.7h2.6l-0.4 2.6h-2.2v6.7z"/>
	</g>
</svg>