<svg version="1.2" xmlns="http://www.w3.org/2000/svg" viewBox="0 0 12 12" width="12" height="12">
	<title>facebook-svg</title>
	<style>
		.s0 { fill: #1778f2 } 
		.s1 { fill: #fdfdfd } 
	</style>
	<g id="facebook square">
		<path id="Rectangle 3167" class="s0" d="m0 2c0-1.1 0.9-2 2-2h8c1.1 0 2 0.9 2 2v8c0 1.1-0.9 2-2 2h-8c-1.1 0-2-0.9-2-2z"/>
		<path id="Layer" class="s1" d="m5.2 9.4v-3.2h-1.1v-1.3h1.1v-0.9c0-1.1 0.6-1.7 1.6-1.7q0.1 0 0.2 0 0.2 0.1 0.3 0.1 0.1 0 0.2 0 0.1 0 0.3 0v1.1h-0.7c-0.5 0-0.6 0.3-0.6 0.6v0.8h1.2l-0.1 1.3h-1.1v3.2z"/>
	</g>
</svg>