<svg width="20" height="21" viewBox="0 0 20 21" fill="none" xmlns="http://www.w3.org/2000/svg">
<path d="M10.3083 2.19439L17.8083 5.19437C18.1 5.31104 18.3333 5.66103 18.3333 5.96937V8.73604C18.3333 9.19437 17.9583 9.56937 17.5 9.56937H2.50001C2.04167 9.56937 1.66667 9.19437 1.66667 8.73604V5.96937C1.66667 5.66103 1.90001 5.31104 2.19168 5.19437L9.69168 2.19439C9.85834 2.12773 10.1417 2.12773 10.3083 2.19439Z" stroke="#027FEE" stroke-width="1.25" stroke-miterlimit="10" stroke-linecap="round" stroke-linejoin="round"/>
<path d="M18.3333 18.736H1.66667V16.236C1.66667 15.7777 2.04167 15.4027 2.50001 15.4027H17.5C17.9583 15.4027 18.3333 15.7777 18.3333 16.236V18.736Z" stroke="#027FEE" stroke-width="1.25" stroke-miterlimit="10" stroke-linecap="round" stroke-linejoin="round"/>
<path d="M3.33333 15.4027V9.56938" stroke="#027FEE" stroke-width="1.25" stroke-miterlimit="10" stroke-linecap="round" stroke-linejoin="round"/>
<path d="M6.66667 15.4027V9.56938" stroke="#027FEE" stroke-width="1.25" stroke-miterlimit="10" stroke-linecap="round" stroke-linejoin="round"/>
<path d="M10 15.4027V9.56938" stroke="#027FEE" stroke-width="1.25" stroke-miterlimit="10" stroke-linecap="round" stroke-linejoin="round"/>
<path d="M13.3333 15.4027V9.56938" stroke="#027FEE" stroke-width="1.25" stroke-miterlimit="10" stroke-linecap="round" stroke-linejoin="round"/>
<path d="M16.6667 15.4027V9.56938" stroke="#027FEE" stroke-width="1.25" stroke-miterlimit="10" stroke-linecap="round" stroke-linejoin="round"/>
<path d="M0.833328 18.736H19.1667" stroke="#027FEE" stroke-width="1.25" stroke-miterlimit="10" stroke-linecap="round" stroke-linejoin="round"/>
<path d="M10 7.48604C10.6904 7.48604 11.25 6.92639 11.25 6.23604C11.25 5.54568 10.6904 4.98604 10 4.98604C9.30964 4.98604 8.75 5.54568 8.75 6.23604C8.75 6.92639 9.30964 7.48604 10 7.48604Z" stroke="#027FEE" stroke-width="1.25" stroke-miterlimit="10" stroke-linecap="round" stroke-linejoin="round"/>
</svg>
