<svg width="24" height="17" viewBox="0 0 24 17" fill="none" xmlns="http://www.w3.org/2000/svg">
<path d="M4.15968 12.3136C4.06876 12.4175 4.07929 12.5755 4.1832 12.6664C4.28711 12.7573 4.44505 12.7468 4.53597 12.6429L7.76139 8.95669C8.19553 9.20565 9.03038 10.0508 9.3621 12.0411C9.38219 12.1616 9.48649 12.25 9.6087 12.25H13.913C14.0339 12.25 14.1374 12.1636 14.159 12.0447C14.3114 11.2067 14.7958 9.93605 15.7487 8.87938C16.1085 8.48036 16.5353 8.11155 17.0373 7.80764C17.0389 7.8108 17.0406 7.81394 17.0423 7.81706L19.4336 12.1214C19.5007 12.2421 19.6529 12.2856 19.7736 12.2185C19.8943 12.1515 19.9378 11.9993 19.8707 11.8786L17.4794 7.57424C17.4784 7.57238 17.4773 7.57055 17.4763 7.56873C18.2123 7.21085 19.0901 6.98913 20.1304 6.98913C20.2685 6.98913 20.3804 6.8772 20.3804 6.73913C20.3804 5.08358 19.3885 1.55318 15.3969 0.754855C15.3058 0.736647 15.2122 0.770388 15.1537 0.842481C15.0952 0.914575 15.0815 1.01315 15.118 1.09848C15.3131 1.55354 15.5562 2.22976 15.7194 2.91471L13.5542 1.73691C13.433 1.67093 13.2811 1.71577 13.2152 1.83706C13.1492 1.95834 13.194 2.11015 13.3153 2.17613L15.8449 3.55219C15.8966 3.89584 15.9153 4.21546 15.8886 4.48626C15.8669 4.70655 15.817 4.87765 15.7441 5.00271C15.1442 4.78079 14.2547 4.60857 13.318 4.73372C12.3237 4.86656 11.2752 5.3356 10.4774 6.42815C9.73931 6.11237 8.62556 5.70068 7.45972 5.39719C6.19927 5.06907 4.83656 4.856 3.82054 5.0592L3.82048 5.05892L3.80893 5.06181C3.48361 5.14314 2.97285 5.28904 2.49267 5.46402C2.25266 5.55148 2.01623 5.64767 1.81277 5.74835C1.61461 5.8464 1.42696 5.95861 1.30149 6.08409C1.2546 6.13098 1.22826 6.19456 1.22826 6.26087V7.69565C1.22826 7.77263 1.26373 7.84532 1.32441 7.8927C1.38509 7.94008 1.46421 7.95686 1.5389 7.93819C1.85329 7.85959 2.37419 7.74119 2.91042 7.64262C3.45144 7.54316 3.98992 7.46739 4.34783 7.46739C5.17148 7.46739 6.01864 7.85453 7.31891 8.70309L4.15968 12.3136ZM17.1578 10.6412C17.2397 10.53 17.216 10.3735 17.1048 10.2916C16.9936 10.2098 16.8371 10.2335 16.7552 10.3447C16.2918 10.974 16.0458 11.737 16.0546 12.5185C16.0633 13.3 16.3263 14.0574 16.8037 14.6761C17.2811 15.2949 17.947 15.7413 18.7007 15.948C19.4545 16.1547 20.255 16.1103 20.9812 15.8216C21.7075 15.5329 22.32 15.0156 22.7261 14.3479C23.1322 13.6802 23.3099 12.8984 23.2322 12.1207C23.1545 11.343 22.8257 10.6118 22.2956 10.0376C21.7654 9.46341 21.0627 9.07745 20.2937 8.93809C20.1578 8.91347 20.0278 9.00365 20.0031 9.13951C19.9785 9.27536 20.0687 9.40546 20.2045 9.43008C20.8667 9.55007 21.4717 9.88239 21.9282 10.3768C22.3847 10.8712 22.6678 11.5008 22.7347 12.1704C22.8015 12.84 22.6486 13.5131 22.2989 14.088C21.9492 14.663 21.4218 15.1084 20.7965 15.357C20.1712 15.6055 19.4819 15.6438 18.833 15.4658C18.184 15.2879 17.6106 14.9034 17.1996 14.3707C16.7885 13.8379 16.5621 13.1858 16.5545 12.5129C16.547 11.84 16.7588 11.183 17.1578 10.6412ZM4.84226 9.42014C4.97856 9.44218 5.10692 9.34955 5.12895 9.21325C5.15099 9.07695 5.05836 8.94859 4.92206 8.92655C4.15054 8.80181 3.35938 8.93169 2.66823 9.29655C1.97707 9.6614 1.42352 10.2414 1.09128 10.9488C0.759044 11.6562 0.666185 12.4526 0.826751 13.2174C0.987317 13.9823 1.39257 14.6741 1.98124 15.1882C2.5699 15.7022 3.30995 16.0107 4.08947 16.0668C4.869 16.1229 5.6456 15.9237 6.30183 15.4992C6.95806 15.0748 7.45824 14.4482 7.72671 13.7142C7.99518 12.9802 8.01736 12.1788 7.78988 11.4311C7.74969 11.299 7.61003 11.2245 7.47794 11.2646C7.34584 11.3048 7.27134 11.4445 7.31153 11.5766C7.50739 12.2204 7.4883 12.9104 7.25714 13.5424C7.02597 14.1744 6.59531 14.7139 6.03028 15.0794C5.46524 15.4449 4.79657 15.6164 4.12538 15.5681C3.45419 15.5198 2.81698 15.2542 2.31013 14.8116C1.80327 14.3689 1.45434 13.7733 1.31609 13.1147C1.17783 12.4561 1.25779 11.7704 1.54385 11.1613C1.82992 10.5522 2.30655 10.0529 2.90164 9.73872C3.49674 9.42457 4.17795 9.31274 4.84226 9.42014Z" stroke="black" stroke-width="0.5" stroke-linecap="round" stroke-linejoin="round"/>
</svg>
