<svg width="23" height="24" viewBox="0 0 23 24" fill="none" xmlns="http://www.w3.org/2000/svg">
<path d="M9.94998 17.7435H2.94998C1.84998 17.7435 0.949982 16.8435 0.949982 15.7435V4.7435C0.949982 3.6435 1.84998 2.7435 2.94998 2.7435H14.95C16.05 2.7435 16.95 3.6435 16.95 4.7435V10.7435" stroke="#3070F6" stroke-linecap="round" stroke-linejoin="round"/>
<path d="M0.949982 7.7435H16.95" stroke="#3070F6" stroke-linecap="round" stroke-linejoin="round"/>
<path d="M5.94998 4.7435V0.7435" stroke="#3070F6" stroke-linecap="round" stroke-linejoin="round"/>
<path d="M11.95 4.7435V0.7435" stroke="#3070F6" stroke-linecap="round" stroke-linejoin="round"/>
<path d="M16.95 22.7435C19.7114 22.7435 21.95 20.5049 21.95 17.7435C21.95 14.9821 19.7114 12.7435 16.95 12.7435C14.1886 12.7435 11.95 14.9821 11.95 17.7435C11.95 20.5049 14.1886 22.7435 16.95 22.7435Z" stroke="#3070F6" stroke-linecap="round" stroke-linejoin="round"/>
<path d="M16.95 14.7435V17.7435H18.95" stroke="#3070F6" stroke-linecap="round" stroke-linejoin="round"/>
</svg>
