<svg width="20" height="22" viewBox="0 0 20 22" fill="none" xmlns="http://www.w3.org/2000/svg">
<path d="M8.97998 1.255L1.97998 5.145C1.34998 5.495 0.949982 6.165 0.949982 6.895V18.715C0.949982 19.815 1.84998 20.715 2.94998 20.715H6.94998V15.715C6.94998 15.165 7.39998 14.715 7.94998 14.715H11.95C12.5 14.715 12.95 15.165 12.95 15.715V20.715H16.95C18.05 20.715 18.95 19.815 18.95 18.715V6.895C18.95 6.165 18.56 5.495 17.92 5.145L10.92 1.255C10.32 0.915 9.57998 0.915 8.97998 1.255Z" stroke="#3070F6" stroke-linecap="round" stroke-linejoin="round"/>
<path d="M11.68 5.105L15.44 7.195C15.76 7.375 15.95 7.705 15.95 8.065V12.715" stroke="#3070F6" stroke-linecap="round" stroke-linejoin="round"/>
</svg>
