<svg width="30" height="31" viewBox="0 0 30 31" fill="none" xmlns="http://www.w3.org/2000/svg">
<path fill-rule="evenodd" clip-rule="evenodd" d="M23.75 14.1527H16.25V6.65271C16.25 5.96146 15.69 5.40271 15 5.40271C14.31 5.40271 13.75 5.96146 13.75 6.65271V14.1527H6.25C5.56 14.1527 5 14.7115 5 15.4027C5 16.094 5.56 16.6527 6.25 16.6527H13.75V24.1527C13.75 24.844 14.31 25.4027 15 25.4027C15.69 25.4027 16.25 24.844 16.25 24.1527V16.6527H23.75C24.44 16.6527 25 16.094 25 15.4027C25 14.7115 24.44 14.1527 23.75 14.1527" fill="#444444"/>
<mask id="mask0_1_228" style="mask-type:luminance" maskUnits="userSpaceOnUse" x="5" y="5" width="20" height="21">
<path fill-rule="evenodd" clip-rule="evenodd" d="M23.75 14.1527H16.25V6.65271C16.25 5.96146 15.69 5.40271 15 5.40271C14.31 5.40271 13.75 5.96146 13.75 6.65271V14.1527H6.25C5.56 14.1527 5 14.7115 5 15.4027C5 16.094 5.56 16.6527 6.25 16.6527H13.75V24.1527C13.75 24.844 14.31 25.4027 15 25.4027C15.69 25.4027 16.25 24.844 16.25 24.1527V16.6527H23.75C24.44 16.6527 25 16.094 25 15.4027C25 14.7115 24.44 14.1527 23.75 14.1527" fill="white"/>
</mask>
<g mask="url(#mask0_1_228)">
</g>
</svg>
