<svg width="32" height="33" viewBox="0 0 32 33" fill="none" xmlns="http://www.w3.org/2000/svg">
<path fill-rule="evenodd" clip-rule="evenodd" d="M25.3333 15.0694H17.3333V7.06937C17.3333 6.33204 16.736 5.73604 16 5.73604C15.264 5.73604 14.6667 6.33204 14.6667 7.06937V15.0694H6.66666C5.93066 15.0694 5.33333 15.6654 5.33333 16.4027C5.33333 17.14 5.93066 17.736 6.66666 17.736H14.6667V25.736C14.6667 26.4734 15.264 27.0694 16 27.0694C16.736 27.0694 17.3333 26.4734 17.3333 25.736V17.736H25.3333C26.0693 17.736 26.6667 17.14 26.6667 16.4027C26.6667 15.6654 26.0693 15.0694 25.3333 15.0694" fill="black"/>
<mask id="mask0_3_412" style="mask-type:luminance" maskUnits="userSpaceOnUse" x="5" y="5" width="22" height="23">
<path fill-rule="evenodd" clip-rule="evenodd" d="M25.3333 15.0694H17.3333V7.06937C17.3333 6.33204 16.736 5.73604 16 5.73604C15.264 5.73604 14.6667 6.33204 14.6667 7.06937V15.0694H6.66666C5.93066 15.0694 5.33333 15.6654 5.33333 16.4027C5.33333 17.14 5.93066 17.736 6.66666 17.736H14.6667V25.736C14.6667 26.4734 15.264 27.0694 16 27.0694C16.736 27.0694 17.3333 26.4734 17.3333 25.736V17.736H25.3333C26.0693 17.736 26.6667 17.14 26.6667 16.4027C26.6667 15.6654 26.0693 15.0694 25.3333 15.0694" fill="white"/>
</mask>
<g mask="url(#mask0_3_412)">
<rect y="0.40271" width="32" height="32" fill="black"/>
</g>
</svg>
