<svg width="32" height="33" viewBox="0 0 32 33" fill="none" xmlns="http://www.w3.org/2000/svg">
<path fill-rule="evenodd" clip-rule="evenodd" d="M25.3333 17.736H6.66667C5.93067 17.736 5.33334 17.14 5.33334 16.4027C5.33334 15.6654 5.93067 15.0694 6.66667 15.0694H25.3333C26.0707 15.0694 26.6667 15.6654 26.6667 16.4027C26.6667 17.14 26.0707 17.736 25.3333 17.736" fill="black"/>
<mask id="mask0_3_407" style="mask-type:luminance" maskUnits="userSpaceOnUse" x="5" y="15" width="22" height="3">
<path fill-rule="evenodd" clip-rule="evenodd" d="M25.3333 17.736H6.66667C5.93067 17.736 5.33334 17.14 5.33334 16.4027C5.33334 15.6654 5.93067 15.0694 6.66667 15.0694H25.3333C26.0707 15.0694 26.6667 15.6654 26.6667 16.4027C26.6667 17.14 26.0707 17.736 25.3333 17.736" fill="white"/>
</mask>
<g mask="url(#mask0_3_407)">
<rect y="0.40271" width="32" height="32" fill="black"/>
</g>
</svg>
