<svg width="20" height="21" viewBox="0 0 20 21" fill="none" xmlns="http://www.w3.org/2000/svg">
<path d="M16.25 10.486C16.25 11.636 17.1833 12.5694 18.3333 12.5694V13.4027C18.3333 16.736 17.5 17.5694 14.1667 17.5694H5.83334C2.5 17.5694 1.66667 16.736 1.66667 13.4027V12.986C2.81667 12.986 3.75 12.0527 3.75 10.9027C3.75 9.75271 2.81667 8.81938 1.66667 8.81938V8.40271C1.66667 5.06938 2.5 4.23604 5.83334 4.23604H14.1667C17.5 4.23604 18.3333 5.06938 18.3333 8.40271C17.1833 8.40271 16.25 9.33604 16.25 10.486Z" stroke="#027FEE" stroke-width="1.25" stroke-linecap="round" stroke-linejoin="round"/>
<path d="M7.5 8.61105L12.5 13.611" stroke="#027FEE" stroke-width="1.25" stroke-linecap="round" stroke-linejoin="round"/>
<path d="M12.4954 8.61104H12.5029" stroke="#027FEE" stroke-width="1.66667" stroke-linecap="round" stroke-linejoin="round"/>
<path d="M7.49542 13.1944H7.5029" stroke="#027FEE" stroke-width="1.66667" stroke-linecap="round" stroke-linejoin="round"/>
</svg>
