<svg width="24" height="106" viewBox="0 0 24 106" fill="none" xmlns="http://www.w3.org/2000/svg">
<g clip-path="url(#clip0_141_7671)">
<path d="M11.97 22C17.4928 22 21.97 17.5228 21.97 12C21.97 6.47715 17.4928 2 11.97 2C6.44712 2 1.96997 6.47715 1.96997 12C1.96997 17.5228 6.44712 22 11.97 22Z" stroke="#3070F7" stroke-width="1.5" stroke-linecap="round" stroke-linejoin="round"/>
<path d="M12 16.23C14.3362 16.23 16.23 14.3362 16.23 12C16.23 9.66386 14.3362 7.77002 12 7.77002C9.66386 7.77002 7.77002 9.66386 7.77002 12C7.77002 14.3362 9.66386 16.23 12 16.23Z" fill="#3070F7" stroke="#3070F7" stroke-width="1.5" stroke-miterlimit="10" stroke-linecap="round" stroke-linejoin="round"/>
</g>
<path fill-rule="evenodd" clip-rule="evenodd" d="M10.9184 34.0026C11.3326 33.9954 11.6733 34.273 11.6794 34.6227L11.7195 36.9182C11.7256 37.268 11.3948 37.5573 10.9806 37.5645C10.5665 37.5718 10.2258 37.2941 10.2197 36.9444L10.1796 34.6489C10.1735 34.2992 10.5043 34.0098 10.9184 34.0026ZM11.0387 40.889C11.4528 40.8818 11.7935 41.1595 11.7996 41.5092L11.8797 46.1002C11.8858 46.4499 11.555 46.7393 11.1409 46.7465C10.7267 46.7537 10.3861 46.4761 10.38 46.1263L10.2998 41.5354C10.2937 41.1856 10.6245 40.8963 11.0387 40.889ZM11.1989 50.071C11.6131 50.0637 11.9538 50.3414 11.9599 50.6911L12.04 55.2821C12.0461 55.6318 11.7153 55.9212 11.3012 55.9284C10.887 55.9357 10.5463 55.658 10.5402 55.3083L10.4601 50.7173C10.454 50.3676 10.7848 50.0782 11.1989 50.071ZM11.3592 59.2529C11.7733 59.2457 12.114 59.5233 12.1201 59.8731L12.2003 64.464C12.2064 64.8138 11.8756 65.1031 11.4614 65.1104C11.0473 65.1176 10.7066 64.8399 10.7005 64.4902L10.6204 59.8992C10.6143 59.5495 10.945 59.2601 11.3592 59.2529ZM11.5195 68.4349C11.9336 68.4276 12.2743 68.7053 12.2804 69.055L12.3205 71.3505C12.3266 71.7002 11.9958 71.9896 11.5816 71.9968C11.1675 72.004 10.8268 71.7264 10.8207 71.3767L10.7806 69.0812C10.7745 68.7315 11.1053 68.4421 11.5195 68.4349Z" fill="#A7A9B7"/>
<g clip-path="url(#clip1_141_7671)">
<path d="M20.62 90.45C19.57 85.83 15.54 83.75 12 83.75C12 83.75 12 83.75 11.99 83.75C8.45997 83.75 4.41997 85.82 3.36997 90.44C2.19997 95.6 5.35997 99.97 8.21997 102.72C9.27997 103.74 10.64 104.25 12 104.25C13.36 104.25 14.72 103.74 15.77 102.72C18.63 99.97 21.79 95.61 20.62 90.45ZM12 95.46C10.26 95.46 8.84997 94.05 8.84997 92.31C8.84997 90.57 10.26 89.16 12 89.16C13.74 89.16 15.15 90.57 15.15 92.31C15.15 94.05 13.74 95.46 12 95.46Z" fill="#1D272F"/>
</g>
<defs>
<clipPath id="clip0_141_7671">
<rect width="24" height="24" fill="white"/>
</clipPath>
<clipPath id="clip1_141_7671">
<rect width="24" height="24" fill="white" transform="translate(0 82)"/>
</clipPath>
</defs>
</svg>
