<svg width="32" height="21" viewBox="0 0 32 21" fill="none" xmlns="http://www.w3.org/2000/svg">
<g clip-path="url(#clip0_1_150)">
<path d="M11.6624 2.54233H20.3061V18.2703H11.6624V2.54233Z" fill="#FF5F00"/>
<path d="M12.2111 10.4064C12.2111 7.21081 13.6929 4.37638 15.9704 2.54233C14.2966 1.20853 12.1837 0.40271 9.87875 0.40271C4.41787 0.40271 0 4.87651 0 10.4064C0 15.9361 4.41787 20.4101 9.87862 20.4101C12.1836 20.4101 14.2965 19.6042 15.9704 18.2703C13.6929 16.4641 12.2111 13.602 12.2111 10.4064V10.4064Z" fill="#EB001B"/>
<path d="M31.9683 10.4064C31.9683 15.9361 27.5504 20.4101 22.0897 20.4101C19.7847 20.4101 17.6718 19.6042 15.9979 18.2703C18.3029 16.4364 19.7573 13.602 19.7573 10.4064C19.7573 7.21081 18.2754 4.37638 15.9979 2.54233C17.6717 1.20853 19.7847 0.40271 22.0897 0.40271C27.5504 0.40271 31.9684 4.90436 31.9684 10.4064H31.9683Z" fill="#F79E1B"/>
</g>
<defs>
<clipPath id="clip0_1_150">
<rect width="32" height="20" fill="white" transform="translate(0 0.40271)"/>
</clipPath>
</defs>
</svg>
