<svg width="32" height="11" viewBox="0 0 32 11" fill="none" xmlns="http://www.w3.org/2000/svg">
<g clip-path="url(#clip0_1_164)">
<path d="M16.5496 3.51874C16.5314 4.95824 17.8325 5.76149 18.8126 6.23911C19.8196 6.72911 20.1579 7.04336 20.1539 7.48161C20.1464 8.15224 19.3506 8.44824 18.606 8.45974C17.3069 8.47986 16.5515 8.10899 15.951 7.82849L15.483 10.0184C16.0855 10.296 17.2011 10.5381 18.358 10.5487C21.0736 10.5487 22.8502 9.20824 22.8599 7.12986C22.8705 4.49211 19.2114 4.34611 19.2364 3.16711C19.245 2.80961 19.5861 2.42811 20.3336 2.33111C20.7036 2.28211 21.725 2.24461 22.883 2.77786L23.3375 0.659112C22.7147 0.432362 21.9144 0.215237 20.9179 0.215237C18.3619 0.215237 16.5641 1.57399 16.5496 3.51874M27.7048 0.397737C27.2089 0.397737 26.791 0.686986 26.6045 1.13086L22.7254 10.3931H25.439L25.979 8.90074H29.295L29.6082 10.3931H32L29.9129 0.397737H27.7048M28.0844 3.09786L28.8675 6.85124H26.7227L28.0844 3.09786M13.2595 0.397861L11.1205 10.393H13.7064L15.8444 0.397612H13.2595M9.43412 0.397612L6.74263 7.20099L5.65387 1.41636C5.52612 0.770612 5.02163 0.397737 4.46138 0.397737H0.061625L0 0.687986C0.90325 0.883986 1.9295 1.20011 2.55125 1.53836C2.93175 1.74499 3.04025 1.92561 3.16525 2.41661L5.22738 10.3931H7.96L12.1495 0.397737H9.43412" fill="url(#paint0_linear_1_164)"/>
</g>
<defs>
<linearGradient id="paint0_linear_1_164" x1="14.7117" y1="10.756" x2="15.0108" y2="0.143371" gradientUnits="userSpaceOnUse">
<stop stop-color="#222357"/>
<stop offset="1" stop-color="#254AA5"/>
</linearGradient>
<clipPath id="clip0_1_164">
<rect width="32" height="10.375" fill="white" transform="translate(0 0.21521)"/>
</clipPath>
</defs>
</svg>
