<svg xmlns="http://www.w3.org/2000/svg" width="24" height="17" fill="none" viewBox="0 0 24 17">
  <path stroke="#333" stroke-linecap="round" stroke-linejoin="round" d="M4.49 13.506h-1c-1.1 0-2-.9-2-2v-9c0-1.1.9-2 2-2h11.53c1.52 0 2.9.86 3.58 2.21l1.89 3.79 1.66 1.11c.83.56 1.34 1.49 1.34 2.5v2.39c0 .55-.45 1-1 1h-1m-4 0h-9"/>
  <path stroke="#333" stroke-linecap="round" stroke-linejoin="round" d="M19.49 15.506a2 2 0 1 0 0-4 2 2 0 0 0 0 4Zm-13 0a2 2 0 1 0 0-4 2 2 0 0 0 0 4Zm14-9h-4c-.55 0-1-.45-1-1v-3m-11 4h8"/>
</svg>
