<svg width="20" height="21" viewBox="0 0 20 21" fill="none" xmlns="http://www.w3.org/2000/svg">
<path d="M10.8333 9.6944H5.83333" stroke="#027FEE" stroke-width="1.25" stroke-linecap="round" stroke-linejoin="round"/>
<path d="M1.66667 9.69439V5.8444C1.66667 4.1444 3.04167 2.76939 4.74167 2.76939H9.425C11.125 2.76939 12.5 3.82773 12.5 5.52773" stroke="#027FEE" stroke-width="1.25" stroke-linecap="round" stroke-linejoin="round"/>
<path d="M14.5667 10.5694C14.15 10.9694 13.95 11.586 14.1167 12.2194C14.325 12.9944 15.0917 13.486 15.8917 13.486H16.6667V14.6944C16.6667 16.5361 15.175 18.0277 13.3333 18.0277H5.00001C3.15834 18.0277 1.66667 16.5361 1.66667 14.6944V8.86106C1.66667 7.01939 3.15834 5.52773 5.00001 5.52773H13.3333C15.1667 5.52773 16.6667 7.02773 16.6667 8.86106V10.0694H15.7667C15.3 10.0694 14.875 10.2527 14.5667 10.5694Z" stroke="#027FEE" stroke-width="1.25" stroke-linecap="round" stroke-linejoin="round"/>
<path d="M18.3334 10.9194V12.636C18.3334 13.1027 17.95 13.486 17.475 13.486H15.8667C14.9667 13.486 14.1417 12.8277 14.0667 11.9277C14.0167 11.4027 14.2167 10.911 14.5667 10.5694C14.875 10.2527 15.3 10.0694 15.7667 10.0694H17.475C17.95 10.0694 18.3334 10.4527 18.3334 10.9194Z" stroke="#027FEE" stroke-width="1.25" stroke-linecap="round" stroke-linejoin="round"/>
</svg>
