<svg width="20" height="21" viewBox="0 0 20 21" fill="none" xmlns="http://www.w3.org/2000/svg">
<path d="M16.0833 7.0027V11.2944C16.0833 13.861 14.6167 14.961 12.4167 14.961H5.09165C4.71665 14.961 4.35832 14.9277 4.02498 14.8527C3.81665 14.8194 3.61666 14.7611 3.43332 14.6944C2.18332 14.2277 1.42499 13.1444 1.42499 11.2944V7.0027C1.42499 4.43603 2.89165 3.33606 5.09165 3.33606H12.4167C14.2833 3.33606 15.625 4.12772 15.9833 5.93606C16.0417 6.26939 16.0833 6.61103 16.0833 7.0027Z" stroke="#027FEE" stroke-width="1.25" stroke-miterlimit="10" stroke-linecap="round" stroke-linejoin="round"/>
<path d="M18.5842 9.5028V13.7945C18.5842 16.3612 17.1176 17.4611 14.9176 17.4611H7.59257C6.97591 17.4611 6.41758 17.3778 5.93425 17.1945C4.94258 16.8278 4.26758 16.0695 4.02591 14.8528C4.35924 14.9278 4.71758 14.9611 5.09258 14.9611H12.4176C14.6176 14.9611 16.0842 13.8612 16.0842 11.2945V7.0028C16.0842 6.61113 16.0509 6.26116 15.9842 5.93616C17.5676 6.26949 18.5842 7.38613 18.5842 9.5028Z" stroke="#027FEE" stroke-width="1.25" stroke-miterlimit="10" stroke-linecap="round" stroke-linejoin="round"/>
<path d="M8.7487 11.3526C9.96373 11.3526 10.9487 10.3676 10.9487 9.15262C10.9487 7.93759 9.96373 6.95261 8.7487 6.95261C7.53368 6.95261 6.54869 7.93759 6.54869 9.15262C6.54869 10.3676 7.53368 11.3526 8.7487 11.3526Z" stroke="#027FEE" stroke-width="1.25" stroke-miterlimit="10" stroke-linecap="round" stroke-linejoin="round"/>
<path d="M3.98334 7.31937V10.9861" stroke="#027FEE" stroke-width="1.25" stroke-miterlimit="10" stroke-linecap="round" stroke-linejoin="round"/>
<path d="M13.5181 7.31961V10.9863" stroke="#027FEE" stroke-width="1.25" stroke-miterlimit="10" stroke-linecap="round" stroke-linejoin="round"/>
</svg>
