<svg width="22" height="22" viewBox="0 0 22 22" fill="none" xmlns="http://www.w3.org/2000/svg">
<path d="M3.48999 5.00601H19.49C20.59 5.00601 21.49 5.90601 21.49 7.00601V11.006C21.49 11.556 21.04 12.006 20.49 12.006H2.48999C1.93999 12.006 1.48999 11.556 1.48999 11.006V7.00601C1.48999 5.90601 2.38999 5.00601 3.48999 5.00601Z" stroke="#3070F6" stroke-linecap="round" stroke-linejoin="round"/>
<path d="M7.48999 5.00601V3.00601C7.48999 1.90601 8.38999 1.00601 9.48999 1.00601H13.49C14.59 1.00601 15.49 1.90601 15.49 3.00601V5.00601" stroke="#3070F6" stroke-linecap="round" stroke-linejoin="round"/>
<path d="M20.49 12.006V19.006C20.49 20.106 19.59 21.006 18.49 21.006H4.48999C3.38999 21.006 2.48999 20.106 2.48999 19.006V12.006" stroke="#3070F6" stroke-linecap="round" stroke-linejoin="round"/>
<path d="M7.48999 12.006V14.006" stroke="#3070F6" stroke-linecap="round" stroke-linejoin="round"/>
<path d="M15.49 12.006V14.006" stroke="#3070F6" stroke-linecap="round" stroke-linejoin="round"/>
</svg>
