<svg width="30" height="31" viewBox="0 0 30 31" fill="none" xmlns="http://www.w3.org/2000/svg">
<path fill-rule="evenodd" clip-rule="evenodd" d="M23.75 14.25H16.25V6.75C16.25 6.05875 15.69 5.5 15 5.5C14.31 5.5 13.75 6.05875 13.75 6.75V14.25H6.25C5.56 14.25 5 14.8087 5 15.5C5 16.1912 5.56 16.75 6.25 16.75H13.75V24.25C13.75 24.9412 14.31 25.5 15 25.5C15.69 25.5 16.25 24.9412 16.25 24.25V16.75H23.75C24.44 16.75 25 16.1912 25 15.5C25 14.8087 24.44 14.25 23.75 14.25" fill="#444444"/>
<mask id="mask0_166_509" style="mask-type:luminance" maskUnits="userSpaceOnUse" x="5" y="5" width="20" height="21">
<path fill-rule="evenodd" clip-rule="evenodd" d="M23.75 14.25H16.25V6.75C16.25 6.05875 15.69 5.5 15 5.5C14.31 5.5 13.75 6.05875 13.75 6.75V14.25H6.25C5.56 14.25 5 14.8087 5 15.5C5 16.1912 5.56 16.75 6.25 16.75H13.75V24.25C13.75 24.9412 14.31 25.5 15 25.5C15.69 25.5 16.25 24.9412 16.25 24.25V16.75H23.75C24.44 16.75 25 16.1912 25 15.5C25 14.8087 24.44 14.25 23.75 14.25" fill="white"/>
</mask>
<g mask="url(#mask0_166_509)">
</g>
</svg>
