<svg width="20" height="20" viewBox="0 0 20 20" fill="none" xmlns="http://www.w3.org/2000/svg">
<path d="M16.25 9.58333C16.25 10.7333 17.1833 11.6667 18.3333 11.6667V12.5C18.3333 15.8333 17.5 16.6667 14.1667 16.6667H5.83334C2.5 16.6667 1.66667 15.8333 1.66667 12.5V12.0833C2.81667 12.0833 3.75 11.15 3.75 10C3.75 8.85 2.81667 7.91667 1.66667 7.91667V7.5C1.66667 4.16667 2.5 3.33333 5.83334 3.33333H14.1667C17.5 3.33333 18.3333 4.16667 18.3333 7.5C17.1833 7.5 16.25 8.43333 16.25 9.58333Z" stroke="#027FEE" stroke-width="1.25" stroke-linecap="round" stroke-linejoin="round"/>
<path d="M7.5 7.70833L12.5 12.7083" stroke="#027FEE" stroke-width="1.25" stroke-linecap="round" stroke-linejoin="round"/>
<path d="M12.4954 7.70833H12.5029" stroke="#027FEE" stroke-width="1.66667" stroke-linecap="round" stroke-linejoin="round"/>
<path d="M7.49542 12.2917H7.5029" stroke="#027FEE" stroke-width="1.66667" stroke-linecap="round" stroke-linejoin="round"/>
</svg>
