<svg width="32" height="11" viewBox="0 0 32 11" fill="none" xmlns="http://www.w3.org/2000/svg">
<g clip-path="url(#clip0_166_547)">
<path d="M16.5496 3.61602C16.5314 5.05552 17.8325 5.85877 18.8126 6.3364C19.8196 6.8264 20.1579 7.14065 20.1539 7.5789C20.1464 8.24952 19.3506 8.54552 18.606 8.55702C17.3069 8.57715 16.5515 8.20627 15.951 7.92577L15.483 10.1156C16.0855 10.3933 17.2011 10.6354 18.358 10.646C21.0736 10.646 22.8502 9.30552 22.8599 7.22715C22.8705 4.5894 19.2114 4.4434 19.2364 3.2644C19.245 2.9069 19.5861 2.5254 20.3336 2.4284C20.7036 2.3794 21.725 2.3419 22.883 2.87515L23.3375 0.756398C22.7147 0.529648 21.9144 0.312523 20.9179 0.312523C18.3619 0.312523 16.5641 1.67127 16.5496 3.61602M27.7048 0.495023C27.2089 0.495023 26.791 0.784272 26.6045 1.22815L22.7254 10.4904H25.439L25.979 8.99802H29.295L29.6082 10.4904H32L29.9129 0.495023H27.7048M28.0844 3.19515L28.8675 6.94852H26.7227L28.0844 3.19515M13.2595 0.495148L11.1205 10.4903H13.7064L15.8444 0.494898H13.2595M9.43412 0.494898L6.74263 7.29827L5.65387 1.51365C5.52612 0.867898 5.02163 0.495023 4.46138 0.495023H0.061625L0 0.785273C0.90325 0.981273 1.9295 1.2974 2.55125 1.63565C2.93175 1.84227 3.04025 2.0229 3.16525 2.5139L5.22738 10.4904H7.96L12.1495 0.495023H9.43412" fill="url(#paint0_linear_166_547)"/>
</g>
<defs>
<linearGradient id="paint0_linear_166_547" x1="14.7117" y1="10.8533" x2="15.0108" y2="0.240657" gradientUnits="userSpaceOnUse">
<stop stop-color="#222357"/>
<stop offset="1" stop-color="#254AA5"/>
</linearGradient>
<clipPath id="clip0_166_547">
<rect width="32" height="10.375" fill="white" transform="translate(0 0.3125)"/>
</clipPath>
</defs>
</svg>
