<svg width="20" height="21" viewBox="0 0 20 21" fill="none" xmlns="http://www.w3.org/2000/svg">
<path d="M16.0833 7.09999V11.3917C16.0833 13.9583 14.6167 15.0583 12.4167 15.0583H5.09165C4.71665 15.0583 4.35832 15.025 4.02498 14.95C3.81665 14.9167 3.61666 14.8584 3.43332 14.7917C2.18332 14.325 1.42499 13.2417 1.42499 11.3917V7.09999C1.42499 4.53332 2.89165 3.43335 5.09165 3.43335H12.4167C14.2833 3.43335 15.625 4.22501 15.9833 6.03335C16.0417 6.36668 16.0833 6.70832 16.0833 7.09999Z" stroke="#027FEE" stroke-width="1.25" stroke-miterlimit="10" stroke-linecap="round" stroke-linejoin="round"/>
<path d="M18.5842 9.60009V13.8918C18.5842 16.4584 17.1176 17.5584 14.9176 17.5584H7.59257C6.97591 17.5584 6.41758 17.4751 5.93425 17.2918C4.94258 16.9251 4.26758 16.1668 4.02591 14.9501C4.35924 15.0251 4.71758 15.0584 5.09258 15.0584H12.4176C14.6176 15.0584 16.0842 13.9584 16.0842 11.3918V7.10009C16.0842 6.70842 16.0509 6.35845 15.9842 6.03345C17.5676 6.36678 18.5842 7.48342 18.5842 9.60009Z" stroke="#027FEE" stroke-width="1.25" stroke-miterlimit="10" stroke-linecap="round" stroke-linejoin="round"/>
<path d="M8.7487 11.4499C9.96373 11.4499 10.9487 10.4649 10.9487 9.24989C10.9487 8.03487 9.96373 7.04988 8.7487 7.04988C7.53368 7.04988 6.54869 8.03487 6.54869 9.24989C6.54869 10.4649 7.53368 11.4499 8.7487 11.4499Z" stroke="#027FEE" stroke-width="1.25" stroke-miterlimit="10" stroke-linecap="round" stroke-linejoin="round"/>
<path d="M3.98334 7.41666V11.0833" stroke="#027FEE" stroke-width="1.25" stroke-miterlimit="10" stroke-linecap="round" stroke-linejoin="round"/>
<path d="M13.5181 7.41692V11.0836" stroke="#027FEE" stroke-width="1.25" stroke-miterlimit="10" stroke-linecap="round" stroke-linejoin="round"/>
</svg>
