<svg width="20" height="21" viewBox="0 0 20 21" fill="none" xmlns="http://www.w3.org/2000/svg">
<path d="M10.3083 2.29168L17.8083 5.29166C18.1 5.40833 18.3333 5.75832 18.3333 6.06666V8.83333C18.3333 9.29166 17.9583 9.66666 17.5 9.66666H2.50001C2.04167 9.66666 1.66667 9.29166 1.66667 8.83333V6.06666C1.66667 5.75832 1.90001 5.40833 2.19168 5.29166L9.69168 2.29168C9.85834 2.22502 10.1417 2.22502 10.3083 2.29168Z" stroke="#027FEE" stroke-width="1.25" stroke-miterlimit="10" stroke-linecap="round" stroke-linejoin="round"/>
<path d="M18.3333 18.8333H1.66667V16.3333C1.66667 15.875 2.04167 15.5 2.50001 15.5H17.5C17.9583 15.5 18.3333 15.875 18.3333 16.3333V18.8333Z" stroke="#027FEE" stroke-width="1.25" stroke-miterlimit="10" stroke-linecap="round" stroke-linejoin="round"/>
<path d="M3.33333 15.5V9.66667" stroke="#027FEE" stroke-width="1.25" stroke-miterlimit="10" stroke-linecap="round" stroke-linejoin="round"/>
<path d="M6.66667 15.5V9.66667" stroke="#027FEE" stroke-width="1.25" stroke-miterlimit="10" stroke-linecap="round" stroke-linejoin="round"/>
<path d="M10 15.5V9.66667" stroke="#027FEE" stroke-width="1.25" stroke-miterlimit="10" stroke-linecap="round" stroke-linejoin="round"/>
<path d="M13.3333 15.5V9.66667" stroke="#027FEE" stroke-width="1.25" stroke-miterlimit="10" stroke-linecap="round" stroke-linejoin="round"/>
<path d="M16.6667 15.5V9.66667" stroke="#027FEE" stroke-width="1.25" stroke-miterlimit="10" stroke-linecap="round" stroke-linejoin="round"/>
<path d="M0.833328 18.8333H19.1667" stroke="#027FEE" stroke-width="1.25" stroke-miterlimit="10" stroke-linecap="round" stroke-linejoin="round"/>
<path d="M10 7.58333C10.6904 7.58333 11.25 7.02368 11.25 6.33333C11.25 5.64297 10.6904 5.08333 10 5.08333C9.30964 5.08333 8.75 5.64297 8.75 6.33333C8.75 7.02368 9.30964 7.58333 10 7.58333Z" stroke="#027FEE" stroke-width="1.25" stroke-miterlimit="10" stroke-linecap="round" stroke-linejoin="round"/>
</svg>
