<svg width="20" height="21" viewBox="0 0 20 21" fill="none" xmlns="http://www.w3.org/2000/svg">
<path d="M10.8333 9.79169H5.83333" stroke="#027FEE" stroke-width="1.25" stroke-linecap="round" stroke-linejoin="round"/>
<path d="M1.66667 9.79168V5.94169C1.66667 4.24169 3.04167 2.86668 4.74167 2.86668H9.425C11.125 2.86668 12.5 3.92502 12.5 5.62502" stroke="#027FEE" stroke-width="1.25" stroke-linecap="round" stroke-linejoin="round"/>
<path d="M14.5667 10.6667C14.15 11.0667 13.95 11.6833 14.1167 12.3167C14.325 13.0917 15.0917 13.5833 15.8917 13.5833H16.6667V14.7917C16.6667 16.6333 15.175 18.125 13.3333 18.125H5.00001C3.15834 18.125 1.66667 16.6333 1.66667 14.7917V8.95835C1.66667 7.11668 3.15834 5.62502 5.00001 5.62502H13.3333C15.1667 5.62502 16.6667 7.12502 16.6667 8.95835V10.1666H15.7667C15.3 10.1666 14.875 10.35 14.5667 10.6667Z" stroke="#027FEE" stroke-width="1.25" stroke-linecap="round" stroke-linejoin="round"/>
<path d="M18.3334 11.0167V12.7333C18.3334 13.2 17.95 13.5833 17.475 13.5833H15.8667C14.9667 13.5833 14.1417 12.925 14.0667 12.025C14.0167 11.5 14.2167 11.0083 14.5667 10.6667C14.875 10.35 15.3 10.1666 15.7667 10.1666H17.475C17.95 10.1666 18.3334 10.55 18.3334 11.0167Z" stroke="#027FEE" stroke-width="1.25" stroke-linecap="round" stroke-linejoin="round"/>
</svg>
